<svg width="1280" height="400" viewBox="0 0 1280 400" xmlns="http://www.w3.org/2000/svg" font-family="'Segoe UI','PingFang SC','Microsoft YaHei',sans-serif">
  <defs>
    <!-- soft paper gradient -->
    <linearGradient id="paper" x1="0" y1="0" x2="1" y2="1">
      <stop offset="0" stop-color="#fbfaf7"/>
      <stop offset="0.55" stop-color="#f3f6ff"/>
      <stop offset="1" stop-color="#ffeef4"/>
    </linearGradient>
    <linearGradient id="sky" x1="0" y1="0" x2="0" y2="1">
      <stop offset="0" stop-color="#8fa9ff"/>
      <stop offset="1" stop-color="#c9d6ff"/>
    </linearGradient>
    <linearGradient id="ink" x1="0" y1="0" x2="1" y2="0">
      <stop offset="0" stop-color="#3a4a8c"/>
      <stop offset="1" stop-color="#6b8cff"/>
    </linearGradient>
    <!-- pencil grain -->
    <filter id="pencil" x="-5%" y="-5%" width="110%" height="110%">
      <feTurbulence type="fractalNoise" baseFrequency="0.9" numOctaves="2" seed="7" result="n"/>
      <feColorMatrix in="n" type="matrix" values="0 0 0 0 0  0 0 0 0 0  0 0 0 0 0  0 0 0 0.05 0" result="grain"/>
      <feComposite in="grain" in2="SourceGraphic" operator="over"/>
    </filter>
    <filter id="rough">
      <feTurbulence type="fractalNoise" baseFrequency="0.018" numOctaves="2" seed="3" result="t"/>
      <feDisplacementMap in="SourceGraphic" in2="t" scale="3.2"/>
    </filter>
    <filter id="softshadow" x="-20%" y="-20%" width="140%" height="140%">
      <feDropShadow dx="0" dy="3" stdDeviation="6" flood-color="#6b73a0" flood-opacity="0.18"/>
    </filter>
  </defs>

  <!-- background -->
  <rect width="1280" height="400" fill="url(#paper)"/>
  <rect width="1280" height="400" fill="url(#paper)" filter="url(#pencil)" opacity="0.5"/>

  <!-- faint sketched grid (calendar motif) -->
  <g stroke="#c3c9e0" stroke-width="1" opacity="0.35" filter="url(#rough)">
    <line x1="0" y1="100" x2="1280" y2="100"/>
    <line x1="0" y1="200" x2="1280" y2="200"/>
    <line x1="0" y1="300" x2="1280" y2="300"/>
    <line x1="160" y1="0" x2="160" y2="400"/>
    <line x1="320" y1="0" x2="320" y2="400"/>
    <line x1="480" y1="0" x2="480" y2="400"/>
  </g>

  <!-- dotted flight path of the lark -->
  <path d="M120 330 Q 260 120 420 210 T 760 150" fill="none" stroke="#6b8cff"
        stroke-width="3" stroke-dasharray="2 12" stroke-linecap="round" opacity="0.7" filter="url(#rough)"/>

  <!-- ===================== MASCOT: chibi lark girl ===================== -->
  <g transform="translate(150,90)" filter="url(#softshadow)">
    <!-- back wing (feather cape) -->
    <path d="M70 150 q -70 -10 -86 60 q 50 -18 86 4 z" fill="#aebfff" stroke="#3a4a8c" stroke-width="2.5" filter="url(#rough)"/>
    <!-- body / dress -->
    <path d="M58 150 q 40 -8 80 0 q 16 70 6 120 q -46 18 -98 0 q -8 -64 12 -120 z"
          fill="#eef2ff" stroke="#3a4a8c" stroke-width="3" filter="url(#rough)"/>
    <path d="M60 200 q 48 14 92 0" fill="none" stroke="#9fb0ff" stroke-width="2.5"/>
    <!-- collar -->
    <path d="M78 150 l 18 16 l 18 -16" fill="#ffd0de" stroke="#3a4a8c" stroke-width="2.5"/>

    <!-- head -->
    <circle cx="96" cy="104" r="56" fill="#fff7ef" stroke="#3a4a8c" stroke-width="3" filter="url(#rough)"/>
    <!-- hair (bird-crest tuft) -->
    <path d="M44 96 q -6 -64 52 -74 q 60 6 56 70 q -20 -26 -56 -24 q -34 -2 -52 28 z"
          fill="#6b8cff" stroke="#3a4a8c" stroke-width="3" filter="url(#rough)"/>
    <path d="M96 22 q 22 -22 30 -2 q -12 4 -16 16 z" fill="#ffb4c8" stroke="#3a4a8c" stroke-width="2.5"/>
    <!-- side hair -->
    <path d="M44 96 q -10 40 6 70 q 12 -14 8 -40 z" fill="#6b8cff" stroke="#3a4a8c" stroke-width="2.5"/>
    <path d="M148 96 q 10 40 -6 70 q -12 -14 -8 -40 z" fill="#6b8cff" stroke="#3a4a8c" stroke-width="2.5"/>

    <!-- eyes -->
    <g>
      <ellipse cx="74" cy="108" rx="11" ry="14" fill="#2c2a33"/>
      <ellipse cx="118" cy="108" rx="11" ry="14" fill="#2c2a33"/>
      <circle cx="78" cy="103" r="4" fill="#fff"/>
      <circle cx="122" cy="103" r="4" fill="#fff"/>
      <circle cx="71" cy="113" r="2.4" fill="#9fb0ff"/>
      <circle cx="115" cy="113" r="2.4" fill="#9fb0ff"/>
    </g>
    <!-- blush -->
    <ellipse cx="62" cy="124" rx="9" ry="5" fill="#ffc1d2" opacity="0.8"/>
    <ellipse cx="130" cy="124" rx="9" ry="5" fill="#ffc1d2" opacity="0.8"/>
    <!-- little beak-nose + smile -->
    <path d="M92 120 l 8 0 l -4 7 z" fill="#ffa64d" stroke="#3a4a8c" stroke-width="1.5"/>
    <path d="M84 132 q 12 10 24 0" fill="none" stroke="#3a4a8c" stroke-width="2.5" stroke-linecap="round"/>

    <!-- arm holding a tiny calendar with a check -->
    <g transform="translate(120,176) rotate(-8)" filter="url(#rough)">
      <rect x="0" y="0" width="58" height="50" rx="7" fill="#ffffff" stroke="#3a4a8c" stroke-width="3"/>
      <rect x="0" y="0" width="58" height="14" rx="7" fill="#6b8cff"/>
      <line x1="14" y1="-6" x2="14" y2="6" stroke="#3a4a8c" stroke-width="3" stroke-linecap="round"/>
      <line x1="44" y1="-6" x2="44" y2="6" stroke="#3a4a8c" stroke-width="3" stroke-linecap="round"/>
      <path d="M14 32 l 12 12 l 22 -26" fill="none" stroke="#2fae6a" stroke-width="5" stroke-linecap="round" stroke-linejoin="round"/>
    </g>
    <!-- front wing-arm -->
    <path d="M58 176 q -34 6 -40 48 q 24 -10 44 -16 z" fill="#aebfff" stroke="#3a4a8c" stroke-width="2.5" filter="url(#rough)"/>
  </g>

  <!-- ===================== TITLE BLOCK ===================== -->
  <g transform="translate(470,150)">
    <text x="0" y="0" font-size="78" font-weight="800" fill="url(#ink)" letter-spacing="-1">VisaLark</text>
    <text x="0" y="60" font-size="52" font-weight="800" fill="#ff7fa3" letter-spacing="6">签证云雀</text>
    <text x="6" y="108" font-size="23" font-weight="600" fill="#4a5578">账号安全的美签预约监控 · 不存密码 · 不绕验证</text>
    <text x="6" y="140" font-size="18" font-weight="500" fill="#8a8694" font-style="italic">Account-safe US visa monitor — zero credentials, zero evasion, open source</text>
  </g>

  <!-- tag chips -->
  <g transform="translate(476,312)" font-size="16" font-weight="700">
    <g>
      <rect x="0" y="0" width="150" height="34" rx="17" fill="#eaf0ff" stroke="#6b8cff" stroke-width="1.5"/>
      <text x="75" y="23" text-anchor="middle" fill="#3a4a8c">🐦 住宅 IP 安全</text>
    </g>
    <g transform="translate(166,0)">
      <rect x="0" y="0" width="138" height="34" rx="17" fill="#fff0f5" stroke="#ff9bb6" stroke-width="1.5"/>
      <text x="69" y="23" text-anchor="middle" fill="#c2456b">微信 / Bark 推送</text>
    </g>
    <g transform="translate(320,0)">
      <rect x="0" y="0" width="118" height="34" rx="17" fill="#e9faf0" stroke="#2fae6a" stroke-width="1.5"/>
      <text x="59" y="23" text-anchor="middle" fill="#1e7a47">一键确认</text>
    </g>
    <g transform="translate(452,0)">
      <rect x="0" y="0" width="138" height="34" rx="17" fill="#f3f0ff" stroke="#9b8cff" stroke-width="1.5"/>
      <text x="69" y="23" text-anchor="middle" fill="#5a4ba0">开源 Apache-2.0</text>
    </g>
  </g>

  <!-- small flying larks in the corner -->
  <g stroke="#6b8cff" stroke-width="3" fill="none" stroke-linecap="round" opacity="0.7">
    <path d="M1080 70 q 16 -16 32 0 q 16 -16 32 0"/>
    <path d="M1150 110 q 12 -12 24 0 q 12 -12 24 0"/>
    <path d="M1040 130 q 10 -10 20 0 q 10 -10 20 0"/>
  </g>
</svg>
